Coordinates
version=1
nRows=17
nColumns=24
inDegrees=yes

Units are S.I. units (second, meters, Newtons, ...)
Angles are in degrees.

endheader
time	pelvis_tilt	pelvis_list	pelvis_rotation	pelvis_tx	pelvis_ty	pelvis_tz	hip_flexion_r	hip_adduction_r	hip_rotation_r	knee_angle_r	ankle_angle_r	subtalar_angle_r	mtp_angle_r	hip_flexion_l	hip_adduction_l	hip_rotation_l	knee_angle_l	ankle_angle_l	subtalar_angle_l	mtp_angle_l	lumbar_extension	lumbar_bending	lumbar_rotation
      0.62000000	     -0.29852127	      4.38831763	      3.75674922	     -0.80745789	      0.97347453	      0.30245188	     24.80267281	     -7.43827900	     -3.39418782	      4.27824329	     -1.53546450	     -9.57194312	      0.69395145	    -22.39092033	      5.54682119	     12.08397776	      1.01421399	     12.16108350	     -9.62578928	      1.00361482	    -11.71137968	      3.91760029	    -10.10159151
      0.62416667	     -0.38485077	      4.25693557	      3.81978493	     -0.80161338	      0.97277434	      0.30304441	     24.96097504	     -7.30969717	     -3.04345379	      3.58482667	     -1.80108867	    -10.11672781	      4.23160699	    -22.38733719	      5.38179766	     11.79416821	      0.47587896	     12.36073684	     -9.19589592	      3.88256953	    -11.57238516	      4.11778448	    -10.06517060
      0.62833333	     -0.38196108	      4.08784164	      3.85470968	     -0.79569602	      0.97221344	      0.30367742	     24.98389167	     -7.12254646	     -2.63110143	      2.95271495	     -2.16451527	    -10.75730818	      4.27123877	    -22.56148257	      5.16872379	     11.74769791	      0.11905450	     12.31052485	     -9.29455322	      3.90353617	    -11.52252913	      4.39730767	    -10.12376203
      0.63250000	     -0.41761144	      3.93351716	      3.90693640	     -0.78975731	      0.97164675	      0.30429681	     25.06220618	     -6.95483011	     -2.28542141	      2.26910744	     -2.52547881	    -11.32788923	      4.31221009	    -22.63792727	      4.97535605	     11.62579409	     -0.36538282	     12.37032022	     -9.19926470	      3.94403621	    -11.43337304	      4.64046141	    -10.09667107
      0.63666667	     -0.44822422	      3.76736110	      3.95507835	     -0.78376986	      0.97111789	      0.30492877	     25.13074245	     -6.76882400	     -1.97457968	      1.58389233	     -2.93609920	    -11.88393768	      4.35141195	    -22.70772589	      4.77031068	     11.46717784	     -0.87168051	     12.42167962	     -9.05197384	      4.00264185	    -11.34502616	      4.90067538	    -10.07872168
      0.64083333	     -0.47872029	      3.59685845	      4.00421811	     -0.77774909	      0.97061703	      0.30557542	     25.20035757	     -6.57443674	     -1.70456521	      0.88856528	     -3.39975527	    -12.42080836	      4.39089019	    -22.75823451	      4.56208060	     11.29181571	     -1.42168744	     12.46495028	     -8.89532508	      4.08301046	    -11.25760426	      5.16184322	    -10.05527997
      0.64500000	     -0.52691580	      3.40474723	      4.05383206	     -0.77166282	      0.97013128	      0.30621772	     25.28962504	     -6.35775385	     -1.49134353	      0.18067911	     -3.85427985	    -12.85416925	      4.41537427	    -22.77957494	      4.33498760	     11.15027794	     -1.98966404	     12.47152374	     -8.81200061	      4.14999959	    -11.15133208	      5.46530291	    -10.02450997
      0.64916667	     -0.55499252	      3.24828886	      4.10207344	     -0.76558419	      0.96969642	      0.30690179	     25.35651148	     -6.16837428	     -1.27633849	     -0.51319875	     -4.46826004	    -13.44846439	      4.45283481	    -22.79856519	      4.14049585	     10.93220250	     -2.60512544	     12.50380216	     -8.57317452	      4.27832933	    -11.05308028	      5.69486048	    -10.01437425
      0.65333333	     -0.59860203	      3.06295690	      4.15149646	     -0.75945622	      0.96927241	      0.30757943	     25.44223511	     -5.95116965	     -1.12134057	     -1.21719791	     -5.06436096	    -13.92954103	      4.49230114	    -22.78538927	      3.91977357	     10.72763460	     -3.25266258	     12.49035162	     -8.39890874	      4.43223919	    -10.94184409	      5.97421211	     -9.99047223
      0.65750000	     -0.65048365	      2.85889875	      4.19876446	     -0.75327689	      0.96886775	      0.30827563	     25.53877224	     -5.71271606	     -1.01451178	     -1.92531303	     -5.68146598	    -14.35876042	      4.52635554	    -22.75575434	      3.68105922	     10.52416147	     -3.90827556	     12.43205115	     -8.26656776	      4.59020974	    -10.82243570	      6.27309773	     -9.96437491
      0.66166667	     -0.69188983	      2.67374752	      4.23999744	     -0.74708886	      0.96849956	      0.30900038	     25.63049029	     -5.48710701	     -0.92105131	     -2.63904149	     -6.34032094	    -14.84252632	      4.56757208	    -22.71662729	      3.46252470	     10.29098473	     -4.60646352	     12.37409488	     -8.08924747	      4.80548383	    -10.69158805	      6.55083321	     -9.94474920
      0.66583333	     -0.74355188	      2.46732276	      4.28191833	     -0.74086005	      0.96815025	      0.30973817	     25.73458499	     -5.24040946	     -0.86914445	     -3.35806433	     -6.99747744	    -15.26880604	      4.61505655	    -22.64893520	      3.22291286	     10.04486386	     -5.33503535	     12.27145852	     -7.93021287	      5.06798515	    -10.56161279	      6.84994083	     -9.92125798
      0.67000000	     -0.79740786	      2.25009234	      4.31993647	     -0.73461350	      0.96782102	      0.31050779	     25.84335331	     -4.97891747	     -0.82891282	     -4.07987962	     -7.64126896	    -15.67847777	      4.67708589	    -22.56136307	      2.97198132	      9.77216339	     -6.09573203	     12.13986214	     -7.75756669	      5.42824707	    -10.43415991	      7.15639558	     -9.89684208
      0.67416667	     -0.79567669	      1.98848038	      4.32016522	     -0.72828901	      0.96757665	      0.31134473	     25.90156642	     -4.65282399	     -0.82622678	     -4.81802436	     -8.24107349	    -16.03179490	      4.88150081	    -22.52323994	      2.67681426	      9.36321871	     -6.86694423	     11.99750429	     -7.43717030	      6.55303064	    -10.34915747	      7.53893411	     -9.88922693
      0.67833333	     -0.87845349	      1.76692340	      4.36734277	     -0.72198351	      0.96728913	      0.31207543	     26.06619116	     -4.40126534	     -0.92648717	     -5.60340070	     -8.77479277	    -16.19309431	      4.89452279	    -22.40323160	      2.42938184	      9.24682022	     -7.61756621	     11.66983484	     -7.57801498	      6.66996224	    -10.16984591	      7.85179384	     -9.80348561
      0.68250000	     -0.95400859	      1.54170387	      4.37491242	     -0.71568938	      0.96699641	      0.31296246	     26.24496962	     -4.11602841	     -0.94890878	     -6.42547468	     -9.28457144	    -16.53403000	      5.53088669	    -22.23298264	      2.17674406	      8.90444622	     -8.47659100	     11.37904817	     -7.42331422	     10.61433015	    -10.02055775	      8.13495289	     -9.72472090
      0.68666667	     -1.01087859	      1.29542619	      4.39148444	     -0.70935049	      0.96679543	      0.31382512	     26.38469477	     -3.81369701	     -1.01197443	     -7.21973586	     -9.77396687	    -16.82555056	      5.53424907	    -22.09981976	      1.90470406	      8.69641837	     -9.29548809	     11.01633913	     -7.45927682	     10.67913006	     -9.86803351	      8.47975757	     -9.75495387
